<?xml version="1.0" encoding="UTF-8"?>
<svg width="147px" height="34px" viewBox="0 0 147 34" version="1.1" xmlns="http://www.w3.org/2000/svg" xmlns:xlink="http://www.w3.org/1999/xlink">
    <title>Logo</title>
    <g id="Clean" stroke="none" stroke-width="1" fill="none" fill-rule="evenodd">
        <g id="Discovery-Phase-v07" transform="translate(-599.000000, -49.000000)" fill="#0A172B">
            <g id="Group-17" transform="translate(599.000000, 40.000000)">
                <g id="logogog" transform="translate(0.000000, 9.000000)">
                    <g id="Group-33">
                        <path d="M16.8,0 C20.8565027,0 24.5772112,1.43770586 27.4803705,3.83136259 L20.5504912,7.60562475 C19.3933536,7.13312942 18.1270869,6.87272727 16.8,6.87272727 C11.3173187,6.87272727 6.87272727,11.3173187 6.87272727,16.8 C6.87272727,22.2826813 11.3173187,26.7272727 16.8,26.7272727 C21.7177565,26.7272727 25.8003274,23.1514179 26.5894367,18.4579843 L31.0432403,16.0550361 C31.1997007,15.9706579 31.3496941,15.8758014 31.4923002,15.7712402 L31.4923002,15.7712402 L33.470554,14.704262 C33.5559913,15.3908425 33.6,16.0902819 33.6,16.8 C33.6,26.0783838 26.0783838,33.6 16.8,33.6 C7.5216162,33.6 0,26.0783838 0,16.8 C0,7.5216162 7.5216162,0 16.8,0 Z M31.8191803,4.29172991 C32.5378966,4.26353907 33.1433846,4.82332059 33.1715597,5.54203755 C33.3421075,9.89010011 33.371548,12.0942454 33.2598809,12.1544735 C32.5807261,12.5207784 31.5619938,13.0702357 30.2036842,13.8028454 C30.1208832,13.874857 30.0294951,13.9383946 29.9305298,13.991766 L29.9305298,13.991766 L17.543096,20.6722429 C17.040571,20.943252 16.4134977,20.7555712 16.1424886,20.2530462 C16.0611749,20.1022684 16.0186047,19.9336471 16.0186047,19.7623408 L16.0186047,19.7623408 L16.0186047,13.6591474 C16.0186047,13.107552 16.3200846,12.6000675 16.8044972,12.3362457 L16.8044972,12.3362457 L20.5169658,10.3136235 C20.5779065,10.2670407 20.6428549,10.2247799 20.7114739,10.1874085 L20.7114739,10.1874085 L31.2473244,4.4493521 C31.4232806,4.35352246 31.6189748,4.29958275 31.8191803,4.29172991 Z" id="Combined-Shape"></path>
                        <path d="M55.3532602,1 C56.8631107,1 58.2651147,1.22818792 59.5592722,1.68456376 C60.8534297,2.1409396 61.9049327,2.75391499 62.7137812,3.52348993 L62.7137812,3.52348993 L59.8019267,6.82550336 C59.3525665,6.3064877 58.759411,5.88143177 58.0224601,5.55033557 C57.2855093,5.21923937 56.4496992,5.05369128 55.5150299,5.05369128 C54.7061815,5.05369128 53.9602434,5.20134228 53.2772159,5.4966443 C52.5941883,5.79194631 52.0010327,6.20357942 51.4977493,6.73154362 C50.9944658,7.25950783 50.6035224,7.88590604 50.324919,8.61073826 C50.0463156,9.33557047 49.907014,10.1275168 49.907014,10.9865772 C49.907014,11.8635347 50.0328348,12.6689038 50.2844766,13.4026846 C50.5361183,14.1364653 50.9090873,14.7673378 51.4033836,15.295302 C51.8976799,15.8232662 52.5088098,16.2348993 53.2367734,16.5302013 C53.9647371,16.8255034 54.7960535,16.9731544 55.7307228,16.9731544 C56.2699551,16.9731544 56.7822258,16.9328859 57.2675349,16.852349 C57.752844,16.7718121 58.2022042,16.6420582 58.6156157,16.4630872 L58.6156157,16.4630872 L58.6156157,13 L54.9757976,13 L54.9757976,9.29530201 L62.8485893,9.29530201 L62.8485893,19.3624161 C61.9139199,19.8456376 60.8219745,20.2393736 59.572753,20.5436242 C58.3235315,20.8478747 56.9619699,21 55.4880683,21 C53.9602434,21 52.5537459,20.7583893 51.2685755,20.2751678 C49.9834052,19.7919463 48.877979,19.1118568 47.9522969,18.2348993 C47.0266147,17.3579418 46.3031447,16.3064877 45.7818868,15.0805369 C45.2606289,13.8545861 45,12.4899329 45,10.9865772 C45,9.46532438 45.2651225,8.08724832 45.7953676,6.85234899 C46.3256127,5.61744966 47.05807,4.56599553 47.9927393,3.69798658 C48.9274086,2.82997763 50.0238476,2.16331096 51.2820563,1.69798658 C52.540265,1.23266219 53.897333,1 55.3532602,1 Z M80.2012978,1.51006711 L80.2012978,5.40268456 L70.8316372,5.40268456 L70.8316372,8.97315436 L80.2012978,8.97315436 L80.2012978,12.6510067 L70.8316372,12.6510067 L70.8316372,16.5973154 L80.2012978,16.5973154 L80.2012978,20.5167785 L66.3829707,20.5167785 L66.3829707,1.51006711 L80.2012978,1.51006711 Z M91.2796361,1.51006711 C92.196331,1.51006711 93.0905579,1.60402685 93.9623168,1.79194631 C94.8340757,1.97986577 95.6159625,2.29753915 96.3079773,2.74496644 C97,3.19239374 97.5527052,3.78299776 97.9661167,4.51677852 C98.3795281,5.25055928 98.6953973,6.37111608 98.6953973,7.46283868 C98.6953973,8.75142928 98.3458949,9.94854586 97.5969611,11.0004971 C96.8480274,12.1856823 95.849449,12.9313945 95.1221656,13.3768332 L95.1221656,13.3768332 L99.111486,20.5167785 L94.2184522,20.5167785 L90.5926142,13.9674372 L88.5295514,13.9674372 L88.5295514,20.5167785 L84,20.5167785 L84,1.51006711 Z M111.779167,1.51006711 L119.705882,20.5167785 L114.583175,20.5167785 L113.100287,16.7852349 L105.712804,16.7852349 L104.3108,20.5167785 L99.2959397,20.5167785 L107.303539,1.51006711 L111.779167,1.51006711 Z M109.460469,6.58389262 L107.033923,13.1073826 L111.833091,13.1073826 L109.460469,6.58389262 Z M90.9623907,5.2147651 L88.5088837,5.2147651 L88.5088837,10.1414367 L90.6927745,10.1414367 C91.0702372,10.1414367 91.456687,10.1101168 91.852124,10.047477 C92.247561,9.98483719 92.6070492,9.87298036 92.9305886,9.71190654 C93.254128,9.55083271 93.5192505,9.31817052 93.7259563,9.01391996 C93.932662,8.7096694 94.1082309,8.30797912 94.1082309,7.56226696 C94.1082309,6.81655481 93.9416492,6.52572707 93.7529179,6.24832215 C93.5641866,5.97091723 93.321532,5.75615213 93.0249543,5.60402685 C92.7283765,5.45190157 92.3958499,5.34899329 92.0273745,5.29530201 C91.6588991,5.24161074 91.3039045,5.2147651 90.9623907,5.2147651 L90.9623907,5.2147651 Z" id="GERAIT"></path>
                        <g id="Group" opacity="0.5" transform="translate(123.195297, 1.588235)">
                            <path d="M4.70588235,-1.77635684e-15 L4.70588235,18.8235294 L7.99360578e-14,18.8235294 L7.99360578e-14,-1.77635684e-15 L4.70588235,-1.77635684e-15 Z M22.9411765,-1.77635684e-15 L22.9411765,3.88168827 L17.5842176,3.88168827 L17.5842176,18.8235294 L13.0040177,18.8235294 L13.0040177,3.88168827 L7.64705882,3.88168827 L7.64705882,-1.77635684e-15 L22.9411765,-1.77635684e-15 Z" id="Combined-Shape"></path>
                        </g>
                    </g>
                    <g id="SINCE2006-2" opacity="0.400000006" transform="translate(46.000000, 27.000000)">
                        <path d="M2.52,6.57 C3.078,6.57 3.555,6.4905 3.951,6.3315 C4.347,6.1725 4.65,5.9475 4.86,5.6565 C5.07,5.3655 5.175,5.019 5.175,4.617 C5.175,4.365 5.13,4.1415 5.04,3.9465 C4.95,3.7515 4.8105,3.5805 4.6215,3.4335 C4.4325,3.2865 4.191,3.156 3.897,3.042 C3.603,2.928 3.255,2.829 2.853,2.745 C2.511,2.667 2.2425,2.5905 2.0475,2.5155 C1.8525,2.4405 1.713,2.355 1.629,2.259 C1.545,2.163 1.503,2.046 1.503,1.908 C1.503,1.656 1.611,1.4565 1.827,1.3095 C2.043,1.1625 2.334,1.089 2.7,1.089 C3.024,1.089 3.342,1.143 3.654,1.251 C3.966,1.359 4.266,1.524 4.554,1.746 L5.004,0.738 C4.836,0.582 4.629,0.45 4.383,0.342 C4.137,0.234 3.8685,0.15 3.5775,0.09 C3.2865,0.03 2.988,1.77635684e-15 2.682,1.77635684e-15 C2.172,1.77635684e-15 1.7265,0.087 1.3455,0.261 C0.9645,0.435 0.6675,0.6735 0.4545,0.9765 C0.2415,1.2795 0.135,1.62 0.135,1.998 C0.135,2.262 0.177,2.4945 0.261,2.6955 C0.345,2.8965 0.4785,3.072 0.6615,3.222 C0.8445,3.372 1.083,3.504 1.377,3.618 C1.671,3.732 2.025,3.831 2.439,3.915 C2.769,3.987 3.033,4.059 3.231,4.131 C3.429,4.203 3.573,4.287 3.663,4.383 C3.753,4.479 3.798,4.596 3.798,4.734 C3.798,4.968 3.6885,5.151 3.4695,5.283 C3.2505,5.415 2.937,5.481 2.529,5.481 C2.151,5.481 1.791,5.427 1.449,5.319 C1.107,5.211 0.777,5.046 0.459,4.824 L-7.10542736e-15,5.832 C0.198,5.988 0.432,6.1215 0.702,6.2325 C0.972,6.3435 1.2615,6.4275 1.5705,6.4845 C1.8795,6.5415 2.196,6.57 2.52,6.57 Z M8.29870538,6.489 L8.29870538,0.081 L6.89470538,0.081 L6.89470538,6.489 L8.29870538,6.489 Z M11.5961118,6.489 L11.596,2.408 L14.7911118,6.489 L15.8351118,6.489 L15.8351118,0.081 L14.5121118,0.081 L14.512,4.158 L11.3171118,0.081 L10.2821118,0.081 L10.2821118,6.489 L11.5961118,6.489 Z M20.828114,6.57 C21.254114,6.57 21.659114,6.5055 22.043114,6.3765 C22.427114,6.2475 22.745114,6.066 22.997114,5.832 L22.556114,4.824 C22.268114,5.04 21.987614,5.1975 21.714614,5.2965 C21.441614,5.3955 21.155114,5.445 20.855114,5.445 C20.285114,5.445 19.844114,5.2605 19.532114,4.8915 C19.220114,4.5225 19.064114,3.984 19.064114,3.276 C19.064114,2.568 19.220114,2.0325 19.532114,1.6695 C19.844114,1.3065 20.285114,1.125 20.855114,1.125 C21.155114,1.125 21.441614,1.1745 21.714614,1.2735 C21.987614,1.3725 22.268114,1.53 22.556114,1.746 L22.997114,0.738 C22.745114,0.504 22.427114,0.3225 22.043114,0.1935 C21.659114,0.0645 21.254114,1.77635684e-15 20.828114,1.77635684e-15 C20.174114,1.77635684e-15 19.607114,0.135 19.127114,0.405 C18.647114,0.675 18.278114,1.056 18.020114,1.548 C17.762114,2.04 17.633114,2.616 17.633114,3.276 C17.633114,3.942 17.762114,4.5225 18.020114,5.0175 C18.278114,5.5125 18.647114,5.895 19.127114,6.165 C19.607114,6.435 20.174114,6.57 20.828114,6.57 Z M29.1034141,6.489 L29.1034141,5.4 L26.0614141,5.4 L26.0614141,3.78 L28.9144141,3.78 L28.9144141,2.682 L26.0614141,2.682 L26.0614141,1.17 L29.1034141,1.17 L29.1034141,0.081 L24.6844141,0.081 L24.6844141,6.489 L29.1034141,6.489 Z M38.355919,6.489 L38.355919,5.364 L35.69,5.364 L37.131919,3.852 C37.431919,3.532 37.660044,3.237 37.816294,2.967 L37.901419,2.808 C38.054419,2.496 38.130919,2.151 38.130919,1.773 C38.130919,1.413 38.042419,1.0995 37.865419,0.8325 C37.688419,0.5655 37.434919,0.36 37.104919,0.216 C36.774919,0.072 36.390919,1.77635684e-15 35.952919,1.77635684e-15 C35.538919,1.77635684e-15 35.130919,0.0645 34.728919,0.1935 C34.326919,0.3225 33.996919,0.498 33.738919,0.72 L34.188919,1.728 C34.476919,1.524 34.763419,1.3695 35.048419,1.2645 C35.333419,1.1595 35.610919,1.107 35.880919,1.107 C36.162919,1.107 36.378919,1.17 36.528919,1.296 C36.678919,1.422 36.753919,1.611 36.753919,1.863 C36.753919,2.073 36.698419,2.2845 36.587419,2.4975 C36.476419,2.7105 36.309919,2.94 36.087919,3.186 L33.954919,5.454 L33.954919,6.489 L38.355919,6.489 Z M42.1762191,6.57 C42.9502191,6.57 43.5427191,6.288 43.9537191,5.724 C44.3647191,5.16 44.5702191,4.344 44.5702191,3.276 C44.5702191,2.22 44.3647191,1.413 43.9537191,0.855 C43.5427191,0.297 42.9502191,0.018 42.1762191,0.018 C41.4022191,0.018 40.8097191,0.297 40.3987191,0.855 C39.9877191,1.413 39.7822191,2.22 39.7822191,3.276 C39.7822191,4.35 39.9877191,5.1675 40.3987191,5.7285 C40.8097191,6.2895 41.4022191,6.57 42.1762191,6.57 Z M42.1762191,5.49 C41.8222191,5.49 41.5642191,5.316 41.4022191,4.968 C41.2402191,4.62 41.1592191,4.056 41.1592191,3.276 C41.1592191,2.514 41.2402191,1.959 41.4022191,1.611 C41.5642191,1.263 41.8222191,1.089 42.1762191,1.089 C42.5302191,1.089 42.7882191,1.263 42.9502191,1.611 C43.1122191,1.959 43.1932191,2.514 43.1932191,3.276 C43.1932191,4.056 43.1122191,4.62 42.9502191,4.968 C42.7882191,5.316 42.5302191,5.49 42.1762191,5.49 Z M48.2762191,6.57 C49.0502191,6.57 49.6427191,6.288 50.0537191,5.724 C50.4647191,5.16 50.6702191,4.344 50.6702191,3.276 C50.6702191,2.22 50.4647191,1.413 50.0537191,0.855 C49.6427191,0.297 49.0502191,0.018 48.2762191,0.018 C47.5022191,0.018 46.9097191,0.297 46.4987191,0.855 C46.0877191,1.413 45.8822191,2.22 45.8822191,3.276 C45.8822191,4.35 46.0877191,5.1675 46.4987191,5.7285 C46.9097191,6.2895 47.5022191,6.57 48.2762191,6.57 Z M48.2762191,5.49 C47.9222191,5.49 47.6642191,5.316 47.5022191,4.968 C47.3402191,4.62 47.2592191,4.056 47.2592191,3.276 C47.2592191,2.514 47.3402191,1.959 47.5022191,1.611 C47.6642191,1.263 47.9222191,1.089 48.2762191,1.089 C48.6302191,1.089 48.8882191,1.263 49.0502191,1.611 C49.2122191,1.959 49.2932191,2.514 49.2932191,3.276 C49.2932191,4.056 49.2122191,4.62 49.0502191,4.968 C48.8882191,5.316 48.6302191,5.49 48.2762191,5.49 Z M54.5922191,6.57 C55.0182191,6.57 55.3962191,6.477 55.7262191,6.291 C56.0562191,6.105 56.3142191,5.8485 56.5002191,5.5215 C56.6862191,5.1945 56.7792191,4.821 56.7792191,4.401 C56.7792191,3.999 56.6967191,3.642 56.5317191,3.33 C56.3667191,3.018 56.1387191,2.7735 55.8477191,2.5965 C55.5567191,2.4195 55.2222191,2.331 54.8442191,2.331 C54.5862191,2.331 54.3447191,2.3775 54.1197191,2.4705 C53.8947191,2.5635 53.7057191,2.694 53.5527191,2.862 C53.4915191,2.9292 53.4382391,3.0012 53.3928791,3.078 L53.382,3.098 L53.3945524,2.886 C53.4292191,2.45 53.5158858,2.092 53.6545524,1.812 L53.7282191,1.6785 C53.9622191,1.2975 54.3012191,1.107 54.7452191,1.107 C54.9732191,1.107 55.2222191,1.155 55.4922191,1.251 C55.7622191,1.347 56.0412191,1.506 56.3292191,1.728 L56.7882191,0.72 C56.5242191,0.486 56.2062191,0.3075 55.8342191,0.1845 C55.4622191,0.0615 55.0782191,1.77635684e-15 54.6822191,1.77635684e-15 C54.1242191,1.77635684e-15 53.6427191,0.135 53.2377191,0.405 C52.8327191,0.675 52.5222191,1.062 52.3062191,1.566 C52.0902191,2.07 51.9822191,2.673 51.9822191,3.375 C51.9822191,4.401 52.2102191,5.19 52.6662191,5.742 C53.1222191,6.294 53.7642191,6.57 54.5922191,6.57 Z M54.5112191,5.472 C54.3252191,5.472 54.1587191,5.4285 54.0117191,5.3415 C53.8647191,5.2545 53.7507191,5.136 53.6697191,4.986 C53.5887191,4.836 53.5482191,4.659 53.5482191,4.455 C53.5482191,4.251 53.5887191,4.071 53.6697191,3.915 C53.7507191,3.759 53.8647191,3.639 54.0117191,3.555 C54.1587191,3.471 54.3252191,3.429 54.5112191,3.429 C54.8052191,3.429 55.0377191,3.522 55.2087191,3.708 C55.3797191,3.894 55.4652191,4.143 55.4652191,4.455 C55.4652191,4.761 55.3782191,5.007 55.2042191,5.193 C55.0302191,5.379 54.7992191,5.472 54.5112191,5.472 Z" id="SINCE2006"></path>
                    </g>
                </g>
            </g>
        </g>
    </g>
</svg>