<?xml version="1.0" encoding="UTF-8"?>
<svg width="104px" height="24px" viewBox="0 0 104 24" version="1.1" xmlns="http://www.w3.org/2000/svg" xmlns:xlink="http://www.w3.org/1999/xlink">
    <title>logogog</title>
    <g id="Symbols" stroke="none" stroke-width="1" fill="none" fill-rule="evenodd">
        <g id="footer" transform="translate(-160.000000, -60.000000)" fill="#FFFFFF">
            <g id="Group-17">
                <g id="logogog" transform="translate(160.000000, 60.000000)">
                    <g id="Group-33">
                        <path d="M11.7714286,0 C14.61334,0 17.2200332,1.01456555 19.2540946,2.70377787 L14.3980689,5.36816023 C13.5876248,5.03496057 12.7008125,4.8513369 11.7714286,4.8513369 C7.92982192,4.8513369 4.81558442,7.98869553 4.81558442,11.8588235 C4.81558442,15.7289515 7.92982192,18.8663102 11.7714286,18.8663102 C15.2173525,18.8663102 18.0780277,16.3419591 18.6307654,13.0287357 L21.7513861,11.3329667 C21.8610148,11.2734056 21.9661122,11.206448 22.0660335,11.1326401 L22.0660335,11.1326401 L23.45213,10.3792614 C23.5120119,10.8639763 23.5428571,11.357771 23.5428571,11.8588235 C23.5428571,18.4082709 18.2726091,23.7176471 11.7714286,23.7176471 C5.27024809,23.7176471 0,18.4082709 0,11.8588235 C0,5.30937614 5.27024809,0 11.7714286,0 Z M22.2959654,3.02981284 C22.7990843,3.01021445 23.2228305,3.40218533 23.2423957,3.9053056 C23.3621268,6.97897581 23.3828424,8.5370834 23.3045424,8.57962834 C22.828672,8.83819649 22.1148664,9.2260487 21.1631256,9.74318499 C21.1051086,9.79401669 21.0410748,9.83886675 20.9717318,9.87654072 L20.9717318,9.87654072 L12.2921013,14.5921715 C11.9399919,14.783472 11.500614,14.6509914 11.3107233,14.2962679 C11.2537484,14.1898365 11.2239203,14.0708097 11.2239203,13.9498876 L11.2239203,13.9498876 L11.2239203,9.64175112 C11.2239203,9.25238965 11.4351613,8.89416527 11.7745796,8.70793813 L11.7745796,8.70793813 L14.3758332,7.28020485 C14.4185331,7.24732283 14.4640412,7.21749171 14.5121212,7.19111187 L14.5121212,7.19111187 L21.8929204,3.14152201 C22.0167967,3.07355537 22.1547756,3.03531272 22.2959654,3.02981284 Z" id="Combined-Shape"></path>
                        <path d="M38.7849374,4.70588235 C39.8428599,4.70588235 40.8252164,4.86695618 41.7320071,5.18910383 C42.6387977,5.51125148 43.3755651,5.94393999 43.9423093,6.48716936 L43.9423093,6.48716936 L41.9020303,8.81800237 C41.5871724,8.45163837 41.1715601,8.15159889 40.6551932,7.91788393 C40.1388263,7.68416897 39.5531906,7.56731149 38.8982863,7.56731149 C38.3315421,7.56731149 37.8088781,7.67153573 37.3302941,7.87998421 C36.8517102,8.08843269 36.4360978,8.37899724 36.083457,8.75167785 C35.7308162,9.12435847 35.4568898,9.56652191 35.2616779,10.0781682 C35.0664661,10.5898144 34.9688601,11.1488354 34.9688601,11.755231 C34.9688601,12.3742598 35.0570203,12.9427556 35.2333407,13.4607185 C35.4096611,13.9786814 35.6709932,14.4240032 36.0173368,14.7966838 C36.3636805,15.1693644 36.7918872,15.4599289 37.3019569,15.6683774 C37.8120266,15.8768259 38.3945137,15.9810501 39.049418,15.9810501 C39.4272475,15.9810501 39.7861855,15.9526253 40.1262319,15.8957758 C40.4662784,15.8389262 40.7811363,15.7473352 41.0708055,15.6210028 L41.0708055,15.6210028 L41.0708055,13.1764706 L38.5204568,13.1764706 L38.5204568,10.5613897 L44.0367666,10.5613897 L44.0367666,17.6675878 C43.3818623,18.0086854 42.6167577,18.2866167 41.7414528,18.5013818 C40.8661479,18.7161469 39.9121286,18.8235294 38.8793948,18.8235294 C37.8088781,18.8235294 36.8233729,18.6529807 35.9228795,18.3118831 C35.022386,17.9707856 34.2478356,17.4907225 33.5992284,16.8716936 C32.9506212,16.2526648 32.4437001,15.5104619 32.0784649,14.6450849 C31.7132298,13.7797079 31.5306122,12.8164232 31.5306122,11.755231 C31.5306122,10.6814054 31.7163784,9.70864587 32.0879107,8.83695223 C32.4594429,7.96525859 32.9726613,7.22305567 33.6275656,6.61034347 C34.28247,5.99763127 35.0507232,5.52704303 35.9323252,5.19857876 C36.8139272,4.87011449 37.764798,4.70588235 38.7849374,4.70588235 Z M56.1954672,5.06592973 L56.1954672,7.81365969 L49.6303308,7.81365969 L49.6303308,10.3339913 L56.1954672,10.3339913 L56.1954672,12.9301224 L49.6303308,12.9301224 L49.6303308,15.7157521 L56.1954672,15.7157521 L56.1954672,18.4824319 L46.513238,18.4824319 L46.513238,5.06592973 L56.1954672,5.06592973 Z M63.9578403,5.06592973 C64.6001503,5.06592973 65.2267175,5.13225424 65.8375417,5.26490328 C66.448366,5.39755231 66.9962187,5.62179234 67.4810998,5.93762337 C67.9659809,6.2534544 68.353256,6.67035136 68.6429253,7.18831425 C68.9325945,7.70627714 69.1539178,8.49725841 69.1539178,9.26788613 C69.1539178,10.1774795 68.9090284,11.022503 68.3842653,11.7650568 C67.8595022,12.6016581 67.159818,13.1280432 66.6502248,13.4424705 L66.6502248,13.4424705 L69.445463,18.4824319 L66.0170107,18.4824319 L63.4764576,13.8593675 L62.0309101,13.8593675 L62.0309101,18.4824319 L58.8571429,18.4824319 L58.8571429,5.06592973 Z M78.3214575,5.06592973 L83.8755502,18.4824319 L80.2861706,18.4824319 L79.2471396,15.8484011 L74.0708763,15.8484011 L73.0885198,18.4824319 L69.574706,18.4824319 L75.1854732,5.06592973 L78.3214575,5.06592973 Z M76.6967909,8.64745361 L74.9965584,13.25227 L78.3592404,13.25227 L76.6967909,8.64745361 Z M63.7355527,7.68101066 L62.0164287,7.68101066 L62.0164287,11.1586612 L63.5466379,11.1586612 C63.8111186,11.1586612 64.0818963,11.1365531 64.3589712,11.0923367 C64.6360462,11.0481204 64.8879324,10.9691626 65.1146301,10.8554634 C65.3413278,10.7417643 65.5270939,10.5775321 65.6719285,10.362767 C65.8167631,10.1480019 65.9397809,9.86445585 65.9397809,9.3380708 C65.9397809,8.81168575 65.8230603,8.60639558 65.69082,8.41058034 C65.5585797,8.2147651 65.3885565,8.06316621 65.1807503,7.95578366 C64.9729441,7.84840111 64.7399493,7.77575997 64.4817658,7.73786024 C64.2235824,7.69996052 63.9748446,7.68101066 63.7355527,7.68101066 L63.7355527,7.68101066 Z" id="GERAIT"></path>
                        <g id="Group" opacity="0.5" transform="translate(86.320514, 5.121107)">
                            <path d="M3.29731893,-1.25389895e-15 L3.29731893,13.2871972 L6.99984288e-14,13.2871972 L6.99984288e-14,-1.25389895e-15 L3.29731893,-1.25389895e-15 Z M16.0744298,-1.25389895e-15 L16.0744298,2.74001525 L12.3209144,2.74001525 L12.3209144,13.2871972 L9.11165867,13.2871972 L9.11165867,2.74001525 L5.35814326,2.74001525 L5.35814326,-1.25389895e-15 L16.0744298,-1.25389895e-15 Z" id="Combined-Shape"></path>
                        </g>
                    </g>
                </g>
            </g>
        </g>
    </g>
</svg>